<?xml version="1.0" encoding="UTF-8"?>
<svg preserveAspectRatio="none" version="1.1" viewBox="0 0 512 512" xmlns="http://www.w3.org/2000/svg" xmlns:xlink="http://www.w3.org/1999/xlink">
<defs>
<g id="d">
<path d="m336.65-4.7q-89.3-89.3-215.65-89.3t-215.7 89.3q-89.3 89.35-89.3 215.7t89.3 215.65q89.35 89.35 215.7 89.35t215.65-89.35q89.35-89.3 89.35-215.65t-89.35-215.7z" fill="#0cf"/>
</g>
<g id="b">
<path d="m506.9 173.05q-21.05-21.05-50.9-21.05h-176q-29.85 0-50.95 21.05-21.05 21.1-21.05 50.95v176q0 29.85 21.05 50.9 21.1 21.1 50.95 21.1h176q29.85 0 50.9-21.1 21.1-21.05 21.1-50.9v-176q0-29.85-21.1-50.95z" fill="#222"/>
</g>
<g id="c">
<path d="m298.9 21.05q-2.3-2.3-4.7-4.35-19.65-16.7-46.2-16.7h-176q-29.85 0-50.95 21.05-21.05 21.1-21.05 50.95v176q0 6.05 0.85 11.7l316.45-208q-4.85-17.1-18.4-30.65z" fill="#424242"/>
</g>
<g id="e">
<path d="m456.8 151.05q-21.05-21.05-50.9-21.05h-185.9q-29.85 0-50.95 21.05-21.05 21.1-21.05 50.95v185.75q0 29.85 21.05 50.9 21.1 21.1 50.95 21.1h185.9q29.85 0 50.9-21.1 21.1-21.05 21.1-50.9v-185.75q0-29.85-21.1-50.95z" fill="#FFEFD5"/>
</g>
<g id="a">
<path d="m-494.75 278.75q-12.75-12.75-30.75-12.75t-30.75 12.75-12.75 30.75 12.75 30.75 30.75 12.75 30.75-12.75 12.75-30.75-12.75-30.75z" fill="#222"/>
</g>
</defs>
<g transform="matrix(.83934 0 0 .83934 154.45 78.9)">
<use xlink:href="#d"/>
</g>
<g transform="translate(96 96)">
<g>
<g transform="translate(-208 -152)">
<use xlink:href="#b"/>
</g>
<g>
<use xlink:href="#c"/>
</g>
</g>
<g transform="matrix(.87901 0 0 .87949 -115.1 -99.35)">
<use xlink:href="#e"/>
</g>
<g transform="translate(48.65 138.25)">
<g transform="matrix(.7816 0 0 .7816 444.75 -207.9)">
<use xlink:href="#a"/>
</g>
</g>
<g transform="translate(198.65 138.25)">
<g transform="matrix(.7816 0 0 .7816 444.75 -207.9)">
<use xlink:href="#a"/>
</g>
</g>
</g>
</svg>